<svg version="1.1" xmlns="http://www.w3.org/2000/svg" viewBox="0 0 228 228"  preserveAspectRatio="xMinYMin meet"><rect width="100%" height="100%" fill="white" cx="0" cy="0"/><path d="M16,16l4,0 0,4 -4,0 0,-4z M20,16l4,0 0,4 -4,0 0,-4z M24,16l4,0 0,4 -4,0 0,-4z M28,16l4,0 0,4 -4,0 0,-4z M32,16l4,0 0,4 -4,0 0,-4z M36,16l4,0 0,4 -4,0 0,-4z M40,16l4,0 0,4 -4,0 0,-4z M48,16l4,0 0,4 -4,0 0,-4z M56,16l4,0 0,4 -4,0 0,-4z M60,16l4,0 0,4 -4,0 0,-4z M68,16l4,0 0,4 -4,0 0,-4z M72,16l4,0 0,4 -4,0 0,-4z M76,16l4,0 0,4 -4,0 0,-4z M80,16l4,0 0,4 -4,0 0,-4z M84,16l4,0 0,4 -4,0 0,-4z M88,16l4,0 0,4 -4,0 0,-4z M92,16l4,0 0,4 -4,0 0,-4z M100,16l4,0 0,4 -4,0 0,-4z M116,16l4,0 0,4 -4,0 0,-4z M120,16l4,0 0,4 -4,0 0,-4z M124,16l4,0 0,4 -4,0 0,-4z M128,16l4,0 0,4 -4,0 0,-4z M132,16l4,0 0,4 -4,0 0,-4z M144,16l4,0 0,4 -4,0 0,-4z M148,16l4,0 0,4 -4,0 0,-4z M160,16l4,0 0,4 -4,0 0,-4z M176,16l4,0 0,4 -4,0 0,-4z M184,16l4,0 0,4 -4,0 0,-4z M188,16l4,0 0,4 -4,0 0,-4z M192,16l4,0 0,4 -4,0 0,-4z M196,16l4,0 0,4 -4,0 0,-4z M200,16l4,0 0,4 -4,0 0,-4z M204,16l4,0 0,4 -4,0 0,-4z M208,16l4,0 0,4 -4,0 0,-4z M16,20l4,0 0,4 -4,0 0,-4z M40,20l4,0 0,4 -4,0 0,-4z M48,20l4,0 0,4 -4,0 0,-4z M52,20l4,0 0,4 -4,0 0,-4z M56,20l4,0 0,4 -4,0 0,-4z M96,20l4,0 0,4 -4,0 0,-4z M100,20l4,0 0,4 -4,0 0,-4z M104,20l4,0 0,4 -4,0 0,-4z M120,20l4,0 0,4 -4,0 0,-4z M124,20l4,0 0,4 -4,0 0,-4z M128,20l4,0 0,4 -4,0 0,-4z M132,20l4,0 0,4 -4,0 0,-4z M140,20l4,0 0,4 -4,0 0,-4z M148,20l4,0 0,4 -4,0 0,-4z M152,20l4,0 0,4 -4,0 0,-4z M156,20l4,0 0,4 -4,0 0,-4z M168,20l4,0 0,4 -4,0 0,-4z M172,20l4,0 0,4 -4,0 0,-4z M176,20l4,0 0,4 -4,0 0,-4z M184,20l4,0 0,4 -4,0 0,-4z M208,20l4,0 0,4 -4,0 0,-4z M16,24l4,0 0,4 -4,0 0,-4z M24,24l4,0 0,4 -4,0 0,-4z M28,24l4,0 0,4 -4,0 0,-4z M32,24l4,0 0,4 -4,0 0,-4z M40,24l4,0 0,4 -4,0 0,-4z M56,24l4,0 0,4 -4,0 0,-4z M60,24l4,0 0,4 -4,0 0,-4z M68,24l4,0 0,4 -4,0 0,-4z M72,24l4,0 0,4 -4,0 0,-4z M88,24l4,0 0,4 -4,0 0,-4z M96,24l4,0 0,4 -4,0 0,-4z M104,24l4,0 0,4 -4,0 0,-4z M116,24l4,0 0,4 -4,0 0,-4z M120,24l4,0 0,4 -4,0 0,-4z M124,24l4,0 0,4 -4,0 0,-4z M128,24l4,0 0,4 -4,0 0,-4z M152,24l4,0 0,4 -4,0 0,-4z M156,24l4,0 0,4 -4,0 0,-4z M160,24l4,0 0,4 -4,0 0,-4z M164,24l4,0 0,4 -4,0 0,-4z M172,24l4,0 0,4 -4,0 0,-4z M176,24l4,0 0,4 -4,0 0,-4z M184,24l4,0 0,4 -4,0 0,-4z M192,24l4,0 0,4 -4,0 0,-4z M196,24l4,0 0,4 -4,0 0,-4z M200,24l4,0 0,4 -4,0 0,-4z M208,24l4,0 0,4 -4,0 0,-4z M16,28l4,0 0,4 -4,0 0,-4z M24,28l4,0 0,4 -4,0 0,-4z M28,28l4,0 0,4 -4,0 0,-4z M32,28l4,0 0,4 -4,0 0,-4z M40,28l4,0 0,4 -4,0 0,-4z M48,28l4,0 0,4 -4,0 0,-4z M52,28l4,0 0,4 -4,0 0,-4z M68,28l4,0 0,4 -4,0 0,-4z M80,28l4,0 0,4 -4,0 0,-4z M100,28l4,0 0,4 -4,0 0,-4z M104,28l4,0 0,4 -4,0 0,-4z M108,28l4,0 0,4 -4,0 0,-4z M140,28l4,0 0,4 -4,0 0,-4z M148,28l4,0 0,4 -4,0 0,-4z M152,28l4,0 0,4 -4,0 0,-4z M160,28l4,0 0,4 -4,0 0,-4z M172,28l4,0 0,4 -4,0 0,-4z M184,28l4,0 0,4 -4,0 0,-4z M192,28l4,0 0,4 -4,0 0,-4z M196,28l4,0 0,4 -4,0 0,-4z M200,28l4,0 0,4 -4,0 0,-4z M208,28l4,0 0,4 -4,0 0,-4z M16,32l4,0 0,4 -4,0 0,-4z M24,32l4,0 0,4 -4,0 0,-4z M28,32l4,0 0,4 -4,0 0,-4z M32,32l4,0 0,4 -4,0 0,-4z M40,32l4,0 0,4 -4,0 0,-4z M52,32l4,0 0,4 -4,0 0,-4z M56,32l4,0 0,4 -4,0 0,-4z M68,32l4,0 0,4 -4,0 0,-4z M76,32l4,0 0,4 -4,0 0,-4z M88,32l4,0 0,4 -4,0 0,-4z M92,32l4,0 0,4 -4,0 0,-4z M104,32l4,0 0,4 -4,0 0,-4z M108,32l4,0 0,4 -4,0 0,-4z M112,32l4,0 0,4 -4,0 0,-4z M116,32l4,0 0,4 -4,0 0,-4z M120,32l4,0 0,4 -4,0 0,-4z M128,32l4,0 0,4 -4,0 0,-4z M140,32l4,0 0,4 -4,0 0,-4z M164,32l4,0 0,4 -4,0 0,-4z M184,32l4,0 0,4 -4,0 0,-4z M192,32l4,0 0,4 -4,0 0,-4z M196,32l4,0 0,4 -4,0 0,-4z M200,32l4,0 0,4 -4,0 0,-4z M208,32l4,0 0,4 -4,0 0,-4z M16,36l4,0 0,4 -4,0 0,-4z M40,36l4,0 0,4 -4,0 0,-4z M76,36l4,0 0,4 -4,0 0,-4z M84,36l4,0 0,4 -4,0 0,-4z M92,36l4,0 0,4 -4,0 0,-4z M96,36l4,0 0,4 -4,0 0,-4z M104,36l4,0 0,4 -4,0 0,-4z M120,36l4,0 0,4 -4,0 0,-4z M124,36l4,0 0,4 -4,0 0,-4z M136,36l4,0 0,4 -4,0 0,-4z M144,36l4,0 0,4 -4,0 0,-4z M160,36l4,0 0,4 -4,0 0,-4z M168,36l4,0 0,4 -4,0 0,-4z M184,36l4,0 0,4 -4,0 0,-4z M208,36l4,0 0,4 -4,0 0,-4z M16,40l4,0 0,4 -4,0 0,-4z M20,40l4,0 0,4 -4,0 0,-4z M24,40l4,0 0,4 -4,0 0,-4z M28,40l4,0 0,4 -4,0 0,-4z M32,40l4,0 0,4 -4,0 0,-4z M36,40l4,0 0,4 -4,0 0,-4z M40,40l4,0 0,4 -4,0 0,-4z M48,40l4,0 0,4 -4,0 0,-4z M56,40l4,0 0,4 -4,0 0,-4z M64,40l4,0 0,4 -4,0 0,-4z M72,40l4,0 0,4 -4,0 0,-4z M80,40l4,0 0,4 -4,0 0,-4z M88,40l4,0 0,4 -4,0 0,-4z M96,40l4,0 0,4 -4,0 0,-4z M104,40l4,0 0,4 -4,0 0,-4z M112,40l4,0 0,4 -4,0 0,-4z M120,40l4,0 0,4 -4,0 0,-4z M128,40l4,0 0,4 -4,0 0,-4z M136,40l4,0 0,4 -4,0 0,-4z M144,40l4,0 0,4 -4,0 0,-4z M152,40l4,0 0,4 -4,0 0,-4z M160,40l4,0 0,4 -4,0 0,-4z M168,40l4,0 0,4 -4,0 0,-4z M176,40l4,0 0,4 -4,0 0,-4z M184,40l4,0 0,4 -4,0 0,-4z M188,40l4,0 0,4 -4,0 0,-4z M192,40l4,0 0,4 -4,0 0,-4z M196,40l4,0 0,4 -4,0 0,-4z M200,40l4,0 0,4 -4,0 0,-4z M204,40l4,0 0,4 -4,0 0,-4z M208,40l4,0 0,4 -4,0 0,-4z M48,44l4,0 0,4 -4,0 0,-4z M52,44l4,0 0,4 -4,0 0,-4z M56,44l4,0 0,4 -4,0 0,-4z M60,44l4,0 0,4 -4,0 0,-4z M64,44l4,0 0,4 -4,0 0,-4z M80,44l4,0 0,4 -4,0 0,-4z M84,44l4,0 0,4 -4,0 0,-4z M92,44l4,0 0,4 -4,0 0,-4z M100,44l4,0 0,4 -4,0 0,-4z M104,44l4,0 0,4 -4,0 0,-4z M120,44l4,0 0,4 -4,0 0,-4z M124,44l4,0 0,4 -4,0 0,-4z M128,44l4,0 0,4 -4,0 0,-4z M132,44l4,0 0,4 -4,0 0,-4z M148,44l4,0 0,4 -4,0 0,-4z M156,44l4,0 0,4 -4,0 0,-4z M160,44l4,0 0,4 -4,0 0,-4z M168,44l4,0 0,4 -4,0 0,-4z M176,44l4,0 0,4 -4,0 0,-4z M16,48l4,0 0,4 -4,0 0,-4z M24,48l4,0 0,4 -4,0 0,-4z M28,48l4,0 0,4 -4,0 0,-4z M36,48l4,0 0,4 -4,0 0,-4z M40,48l4,0 0,4 -4,0 0,-4z M44,48l4,0 0,4 -4,0 0,-4z M56,48l4,0 0,4 -4,0 0,-4z M80,48l4,0 0,4 -4,0 0,-4z M84,48l4,0 0,4 -4,0 0,-4z M92,48l4,0 0,4 -4,0 0,-4z M100,48l4,0 0,4 -4,0 0,-4z M104,48l4,0 0,4 -4,0 0,-4z M108,48l4,0 0,4 -4,0 0,-4z M112,48l4,0 0,4 -4,0 0,-4z M116,48l4,0 0,4 -4,0 0,-4z M120,48l4,0 0,4 -4,0 0,-4z M128,48l4,0 0,4 -4,0 0,-4z M132,48l4,0 0,4 -4,0 0,-4z M136,48l4,0 0,4 -4,0 0,-4z M156,48l4,0 0,4 -4,0 0,-4z M184,48l4,0 0,4 -4,0 0,-4z M196,48l4,0 0,4 -4,0 0,-4z M204,48l4,0 0,4 -4,0 0,-4z M208,48l4,0 0,4 -4,0 0,-4z M16,52l4,0 0,4 -4,0 0,-4z M20,52l4,0 0,4 -4,0 0,-4z M24,52l4,0 0,4 -4,0 0,-4z M28,52l4,0 0,4 -4,0 0,-4z M52,52l4,0 0,4 -4,0 0,-4z M56,52l4,0 0,4 -4,0 0,-4z M60,52l4,0 0,4 -4,0 0,-4z M64,52l4,0 0,4 -4,0 0,-4z M76,52l4,0 0,4 -4,0 0,-4z M84,52l4,0 0,4 -4,0 0,-4z M88,52l4,0 0,4 -4,0 0,-4z M92,52l4,0 0,4 -4,0 0,-4z M100,52l4,0 0,4 -4,0 0,-4z M128,52l4,0 0,4 -4,0 0,-4z M136,52l4,0 0,4 -4,0 0,-4z M144,52l4,0 0,4 -4,0 0,-4z M148,52l4,0 0,4 -4,0 0,-4z M172,52l4,0 0,4 -4,0 0,-4z M184,52l4,0 0,4 -4,0 0,-4z M188,52l4,0 0,4 -4,0 0,-4z M192,52l4,0 0,4 -4,0 0,-4z M204,52l4,0 0,4 -4,0 0,-4z M16,56l4,0 0,4 -4,0 0,-4z M20,56l4,0 0,4 -4,0 0,-4z M24,56l4,0 0,4 -4,0 0,-4z M28,56l4,0 0,4 -4,0 0,-4z M36,56l4,0 0,4 -4,0 0,-4z M40,56l4,0 0,4 -4,0 0,-4z M48,56l4,0 0,4 -4,0 0,-4z M52,56l4,0 0,4 -4,0 0,-4z M76,56l4,0 0,4 -4,0 0,-4z M84,56l4,0 0,4 -4,0 0,-4z M88,56l4,0 0,4 -4,0 0,-4z M92,56l4,0 0,4 -4,0 0,-4z M112,56l4,0 0,4 -4,0 0,-4z M116,56l4,0 0,4 -4,0 0,-4z M136,56l4,0 0,4 -4,0 0,-4z M140,56l4,0 0,4 -4,0 0,-4z M144,56l4,0 0,4 -4,0 0,-4z M148,56l4,0 0,4 -4,0 0,-4z M152,56l4,0 0,4 -4,0 0,-4z M156,56l4,0 0,4 -4,0 0,-4z M164,56l4,0 0,4 -4,0 0,-4z M172,56l4,0 0,4 -4,0 0,-4z M176,56l4,0 0,4 -4,0 0,-4z M184,56l4,0 0,4 -4,0 0,-4z M188,56l4,0 0,4 -4,0 0,-4z M192,56l4,0 0,4 -4,0 0,-4z M196,56l4,0 0,4 -4,0 0,-4z M204,56l4,0 0,4 -4,0 0,-4z M16,60l4,0 0,4 -4,0 0,-4z M28,60l4,0 0,4 -4,0 0,-4z M36,60l4,0 0,4 -4,0 0,-4z M48,60l4,0 0,4 -4,0 0,-4z M56,60l4,0 0,4 -4,0 0,-4z M64,60l4,0 0,4 -4,0 0,-4z M68,60l4,0 0,4 -4,0 0,-4z M72,60l4,0 0,4 -4,0 0,-4z M76,60l4,0 0,4 -4,0 0,-4z M80,60l4,0 0,4 -4,0 0,-4z M84,60l4,0 0,4 -4,0 0,-4z M88,60l4,0 0,4 -4,0 0,-4z M92,60l4,0 0,4 -4,0 0,-4z M104,60l4,0 0,4 -4,0 0,-4z M108,60l4,0 0,4 -4,0 0,-4z M112,60l4,0 0,4 -4,0 0,-4z M116,60l4,0 0,4 -4,0 0,-4z M124,60l4,0 0,4 -4,0 0,-4z M140,60l4,0 0,4 -4,0 0,-4z M144,60l4,0 0,4 -4,0 0,-4z M152,60l4,0 0,4 -4,0 0,-4z M156,60l4,0 0,4 -4,0 0,-4z M160,60l4,0 0,4 -4,0 0,-4z M164,60l4,0 0,4 -4,0 0,-4z M176,60l4,0 0,4 -4,0 0,-4z M192,60l4,0 0,4 -4,0 0,-4z M200,60l4,0 0,4 -4,0 0,-4z M204,60l4,0 0,4 -4,0 0,-4z M208,60l4,0 0,4 -4,0 0,-4z M24,64l4,0 0,4 -4,0 0,-4z M32,64l4,0 0,4 -4,0 0,-4z M40,64l4,0 0,4 -4,0 0,-4z M44,64l4,0 0,4 -4,0 0,-4z M48,64l4,0 0,4 -4,0 0,-4z M68,64l4,0 0,4 -4,0 0,-4z M76,64l4,0 0,4 -4,0 0,-4z M88,64l4,0 0,4 -4,0 0,-4z M92,64l4,0 0,4 -4,0 0,-4z M104,64l4,0 0,4 -4,0 0,-4z M112,64l4,0 0,4 -4,0 0,-4z M120,64l4,0 0,4 -4,0 0,-4z M140,64l4,0 0,4 -4,0 0,-4z M156,64l4,0 0,4 -4,0 0,-4z M160,64l4,0 0,4 -4,0 0,-4z M176,64l4,0 0,4 -4,0 0,-4z M180,64l4,0 0,4 -4,0 0,-4z M184,64l4,0 0,4 -4,0 0,-4z M200,64l4,0 0,4 -4,0 0,-4z M204,64l4,0 0,4 -4,0 0,-4z M208,64l4,0 0,4 -4,0 0,-4z M16,68l4,0 0,4 -4,0 0,-4z M24,68l4,0 0,4 -4,0 0,-4z M28,68l4,0 0,4 -4,0 0,-4z M36,68l4,0 0,4 -4,0 0,-4z M48,68l4,0 0,4 -4,0 0,-4z M64,68l4,0 0,4 -4,0 0,-4z M72,68l4,0 0,4 -4,0 0,-4z M84,68l4,0 0,4 -4,0 0,-4z M88,68l4,0 0,4 -4,0 0,-4z M96,68l4,0 0,4 -4,0 0,-4z M108,68l4,0 0,4 -4,0 0,-4z M116,68l4,0 0,4 -4,0 0,-4z M120,68l4,0 0,4 -4,0 0,-4z M124,68l4,0 0,4 -4,0 0,-4z M132,68l4,0 0,4 -4,0 0,-4z M156,68l4,0 0,4 -4,0 0,-4z M160,68l4,0 0,4 -4,0 0,-4z M168,68l4,0 0,4 -4,0 0,-4z M180,68l4,0 0,4 -4,0 0,-4z M188,68l4,0 0,4 -4,0 0,-4z M192,68l4,0 0,4 -4,0 0,-4z M208,68l4,0 0,4 -4,0 0,-4z M16,72l4,0 0,4 -4,0 0,-4z M20,72l4,0 0,4 -4,0 0,-4z M36,72l4,0 0,4 -4,0 0,-4z M40,72l4,0 0,4 -4,0 0,-4z M60,72l4,0 0,4 -4,0 0,-4z M64,72l4,0 0,4 -4,0 0,-4z M72,72l4,0 0,4 -4,0 0,-4z M76,72l4,0 0,4 -4,0 0,-4z M80,72l4,0 0,4 -4,0 0,-4z M100,72l4,0 0,4 -4,0 0,-4z M104,72l4,0 0,4 -4,0 0,-4z M116,72l4,0 0,4 -4,0 0,-4z M120,72l4,0 0,4 -4,0 0,-4z M136,72l4,0 0,4 -4,0 0,-4z M144,72l4,0 0,4 -4,0 0,-4z M148,72l4,0 0,4 -4,0 0,-4z M168,72l4,0 0,4 -4,0 0,-4z M176,72l4,0 0,4 -4,0 0,-4z M180,72l4,0 0,4 -4,0 0,-4z M184,72l4,0 0,4 -4,0 0,-4z M188,72l4,0 0,4 -4,0 0,-4z M192,72l4,0 0,4 -4,0 0,-4z M196,72l4,0 0,4 -4,0 0,-4z M200,72l4,0 0,4 -4,0 0,-4z M20,76l4,0 0,4 -4,0 0,-4z M24,76l4,0 0,4 -4,0 0,-4z M32,76l4,0 0,4 -4,0 0,-4z M52,76l4,0 0,4 -4,0 0,-4z M64,76l4,0 0,4 -4,0 0,-4z M68,76l4,0 0,4 -4,0 0,-4z M76,76l4,0 0,4 -4,0 0,-4z M84,76l4,0 0,4 -4,0 0,-4z M88,76l4,0 0,4 -4,0 0,-4z M100,76l4,0 0,4 -4,0 0,-4z M108,76l4,0 0,4 -4,0 0,-4z M116,76l4,0 0,4 -4,0 0,-4z M136,76l4,0 0,4 -4,0 0,-4z M156,76l4,0 0,4 -4,0 0,-4z M168,76l4,0 0,4 -4,0 0,-4z M172,76l4,0 0,4 -4,0 0,-4z M176,76l4,0 0,4 -4,0 0,-4z M188,76l4,0 0,4 -4,0 0,-4z M192,76l4,0 0,4 -4,0 0,-4z M196,76l4,0 0,4 -4,0 0,-4z M208,76l4,0 0,4 -4,0 0,-4z M16,80l4,0 0,4 -4,0 0,-4z M20,80l4,0 0,4 -4,0 0,-4z M24,80l4,0 0,4 -4,0 0,-4z M28,80l4,0 0,4 -4,0 0,-4z M32,80l4,0 0,4 -4,0 0,-4z M36,80l4,0 0,4 -4,0 0,-4z M40,80l4,0 0,4 -4,0 0,-4z M48,80l4,0 0,4 -4,0 0,-4z M80,80l4,0 0,4 -4,0 0,-4z M84,80l4,0 0,4 -4,0 0,-4z M88,80l4,0 0,4 -4,0 0,-4z M96,80l4,0 0,4 -4,0 0,-4z M100,80l4,0 0,4 -4,0 0,-4z M108,80l4,0 0,4 -4,0 0,-4z M120,80l4,0 0,4 -4,0 0,-4z M144,80l4,0 0,4 -4,0 0,-4z M156,80l4,0 0,4 -4,0 0,-4z M176,80l4,0 0,4 -4,0 0,-4z M192,80l4,0 0,4 -4,0 0,-4z M196,80l4,0 0,4 -4,0 0,-4z M200,80l4,0 0,4 -4,0 0,-4z M204,80l4,0 0,4 -4,0 0,-4z M16,84l4,0 0,4 -4,0 0,-4z M20,84l4,0 0,4 -4,0 0,-4z M28,84l4,0 0,4 -4,0 0,-4z M36,84l4,0 0,4 -4,0 0,-4z M52,84l4,0 0,4 -4,0 0,-4z M56,84l4,0 0,4 -4,0 0,-4z M60,84l4,0 0,4 -4,0 0,-4z M64,84l4,0 0,4 -4,0 0,-4z M72,84l4,0 0,4 -4,0 0,-4z M84,84l4,0 0,4 -4,0 0,-4z M88,84l4,0 0,4 -4,0 0,-4z M104,84l4,0 0,4 -4,0 0,-4z M108,84l4,0 0,4 -4,0 0,-4z M124,84l4,0 0,4 -4,0 0,-4z M128,84l4,0 0,4 -4,0 0,-4z M152,84l4,0 0,4 -4,0 0,-4z M156,84l4,0 0,4 -4,0 0,-4z M160,84l4,0 0,4 -4,0 0,-4z M164,84l4,0 0,4 -4,0 0,-4z M172,84l4,0 0,4 -4,0 0,-4z M176,84l4,0 0,4 -4,0 0,-4z M180,84l4,0 0,4 -4,0 0,-4z M200,84l4,0 0,4 -4,0 0,-4z M16,88l4,0 0,4 -4,0 0,-4z M24,88l4,0 0,4 -4,0 0,-4z M36,88l4,0 0,4 -4,0 0,-4z M40,88l4,0 0,4 -4,0 0,-4z M44,88l4,0 0,4 -4,0 0,-4z M52,88l4,0 0,4 -4,0 0,-4z M56,88l4,0 0,4 -4,0 0,-4z M60,88l4,0 0,4 -4,0 0,-4z M76,88l4,0 0,4 -4,0 0,-4z M84,88l4,0 0,4 -4,0 0,-4z M88,88l4,0 0,4 -4,0 0,-4z M92,88l4,0 0,4 -4,0 0,-4z M100,88l4,0 0,4 -4,0 0,-4z M104,88l4,0 0,4 -4,0 0,-4z M108,88l4,0 0,4 -4,0 0,-4z M112,88l4,0 0,4 -4,0 0,-4z M116,88l4,0 0,4 -4,0 0,-4z M124,88l4,0 0,4 -4,0 0,-4z M132,88l4,0 0,4 -4,0 0,-4z M136,88l4,0 0,4 -4,0 0,-4z M152,88l4,0 0,4 -4,0 0,-4z M160,88l4,0 0,4 -4,0 0,-4z M168,88l4,0 0,4 -4,0 0,-4z M172,88l4,0 0,4 -4,0 0,-4z M196,88l4,0 0,4 -4,0 0,-4z M204,88l4,0 0,4 -4,0 0,-4z M208,88l4,0 0,4 -4,0 0,-4z M24,92l4,0 0,4 -4,0 0,-4z M32,92l4,0 0,4 -4,0 0,-4z M48,92l4,0 0,4 -4,0 0,-4z M60,92l4,0 0,4 -4,0 0,-4z M64,92l4,0 0,4 -4,0 0,-4z M68,92l4,0 0,4 -4,0 0,-4z M84,92l4,0 0,4 -4,0 0,-4z M88,92l4,0 0,4 -4,0 0,-4z M96,92l4,0 0,4 -4,0 0,-4z M112,92l4,0 0,4 -4,0 0,-4z M120,92l4,0 0,4 -4,0 0,-4z M132,92l4,0 0,4 -4,0 0,-4z M144,92l4,0 0,4 -4,0 0,-4z M148,92l4,0 0,4 -4,0 0,-4z M152,92l4,0 0,4 -4,0 0,-4z M160,92l4,0 0,4 -4,0 0,-4z M168,92l4,0 0,4 -4,0 0,-4z M172,92l4,0 0,4 -4,0 0,-4z M180,92l4,0 0,4 -4,0 0,-4z M184,92l4,0 0,4 -4,0 0,-4z M188,92l4,0 0,4 -4,0 0,-4z M204,92l4,0 0,4 -4,0 0,-4z M208,92l4,0 0,4 -4,0 0,-4z M16,96l4,0 0,4 -4,0 0,-4z M24,96l4,0 0,4 -4,0 0,-4z M32,96l4,0 0,4 -4,0 0,-4z M36,96l4,0 0,4 -4,0 0,-4z M40,96l4,0 0,4 -4,0 0,-4z M60,96l4,0 0,4 -4,0 0,-4z M68,96l4,0 0,4 -4,0 0,-4z M72,96l4,0 0,4 -4,0 0,-4z M76,96l4,0 0,4 -4,0 0,-4z M80,96l4,0 0,4 -4,0 0,-4z M84,96l4,0 0,4 -4,0 0,-4z M96,96l4,0 0,4 -4,0 0,-4z M100,96l4,0 0,4 -4,0 0,-4z M124,96l4,0 0,4 -4,0 0,-4z M128,96l4,0 0,4 -4,0 0,-4z M132,96l4,0 0,4 -4,0 0,-4z M136,96l4,0 0,4 -4,0 0,-4z M164,96l4,0 0,4 -4,0 0,-4z M172,96l4,0 0,4 -4,0 0,-4z M188,96l4,0 0,4 -4,0 0,-4z M196,96l4,0 0,4 -4,0 0,-4z M16,100l4,0 0,4 -4,0 0,-4z M20,100l4,0 0,4 -4,0 0,-4z M24,100l4,0 0,4 -4,0 0,-4z M28,100l4,0 0,4 -4,0 0,-4z M32,100l4,0 0,4 -4,0 0,-4z M44,100l4,0 0,4 -4,0 0,-4z M48,100l4,0 0,4 -4,0 0,-4z M52,100l4,0 0,4 -4,0 0,-4z M64,100l4,0 0,4 -4,0 0,-4z M68,100l4,0 0,4 -4,0 0,-4z M100,100l4,0 0,4 -4,0 0,-4z M108,100l4,0 0,4 -4,0 0,-4z M132,100l4,0 0,4 -4,0 0,-4z M136,100l4,0 0,4 -4,0 0,-4z M156,100l4,0 0,4 -4,0 0,-4z M160,100l4,0 0,4 -4,0 0,-4z M172,100l4,0 0,4 -4,0 0,-4z M184,100l4,0 0,4 -4,0 0,-4z M196,100l4,0 0,4 -4,0 0,-4z M200,100l4,0 0,4 -4,0 0,-4z M204,100l4,0 0,4 -4,0 0,-4z M32,104l4,0 0,4 -4,0 0,-4z M36,104l4,0 0,4 -4,0 0,-4z M40,104l4,0 0,4 -4,0 0,-4z M44,104l4,0 0,4 -4,0 0,-4z M48,104l4,0 0,4 -4,0 0,-4z M52,104l4,0 0,4 -4,0 0,-4z M56,104l4,0 0,4 -4,0 0,-4z M60,104l4,0 0,4 -4,0 0,-4z M72,104l4,0 0,4 -4,0 0,-4z M80,104l4,0 0,4 -4,0 0,-4z M88,104l4,0 0,4 -4,0 0,-4z M96,104l4,0 0,4 -4,0 0,-4z M104,104l4,0 0,4 -4,0 0,-4z M108,104l4,0 0,4 -4,0 0,-4z M112,104l4,0 0,4 -4,0 0,-4z M116,104l4,0 0,4 -4,0 0,-4z M120,104l4,0 0,4 -4,0 0,-4z M124,104l4,0 0,4 -4,0 0,-4z M132,104l4,0 0,4 -4,0 0,-4z M136,104l4,0 0,4 -4,0 0,-4z M140,104l4,0 0,4 -4,0 0,-4z M144,104l4,0 0,4 -4,0 0,-4z M152,104l4,0 0,4 -4,0 0,-4z M164,104l4,0 0,4 -4,0 0,-4z M172,104l4,0 0,4 -4,0 0,-4z M176,104l4,0 0,4 -4,0 0,-4z M180,104l4,0 0,4 -4,0 0,-4z M184,104l4,0 0,4 -4,0 0,-4z M188,104l4,0 0,4 -4,0 0,-4z M192,104l4,0 0,4 -4,0 0,-4z M204,104l4,0 0,4 -4,0 0,-4z M16,108l4,0 0,4 -4,0 0,-4z M32,108l4,0 0,4 -4,0 0,-4z M48,108l4,0 0,4 -4,0 0,-4z M56,108l4,0 0,4 -4,0 0,-4z M60,108l4,0 0,4 -4,0 0,-4z M64,108l4,0 0,4 -4,0 0,-4z M72,108l4,0 0,4 -4,0 0,-4z M76,108l4,0 0,4 -4,0 0,-4z M84,108l4,0 0,4 -4,0 0,-4z M92,108l4,0 0,4 -4,0 0,-4z M104,108l4,0 0,4 -4,0 0,-4z M120,108l4,0 0,4 -4,0 0,-4z M136,108l4,0 0,4 -4,0 0,-4z M140,108l4,0 0,4 -4,0 0,-4z M144,108l4,0 0,4 -4,0 0,-4z M152,108l4,0 0,4 -4,0 0,-4z M156,108l4,0 0,4 -4,0 0,-4z M160,108l4,0 0,4 -4,0 0,-4z M176,108l4,0 0,4 -4,0 0,-4z M192,108l4,0 0,4 -4,0 0,-4z M200,108l4,0 0,4 -4,0 0,-4z M24,112l4,0 0,4 -4,0 0,-4z M32,112l4,0 0,4 -4,0 0,-4z M40,112l4,0 0,4 -4,0 0,-4z M48,112l4,0 0,4 -4,0 0,-4z M56,112l4,0 0,4 -4,0 0,-4z M60,112l4,0 0,4 -4,0 0,-4z M68,112l4,0 0,4 -4,0 0,-4z M76,112l4,0 0,4 -4,0 0,-4z M88,112l4,0 0,4 -4,0 0,-4z M92,112l4,0 0,4 -4,0 0,-4z M96,112l4,0 0,4 -4,0 0,-4z M100,112l4,0 0,4 -4,0 0,-4z M104,112l4,0 0,4 -4,0 0,-4z M112,112l4,0 0,4 -4,0 0,-4z M120,112l4,0 0,4 -4,0 0,-4z M132,112l4,0 0,4 -4,0 0,-4z M136,112l4,0 0,4 -4,0 0,-4z M140,112l4,0 0,4 -4,0 0,-4z M160,112l4,0 0,4 -4,0 0,-4z M176,112l4,0 0,4 -4,0 0,-4z M184,112l4,0 0,4 -4,0 0,-4z M192,112l4,0 0,4 -4,0 0,-4z M196,112l4,0 0,4 -4,0 0,-4z M200,112l4,0 0,4 -4,0 0,-4z M208,112l4,0 0,4 -4,0 0,-4z M16,116l4,0 0,4 -4,0 0,-4z M24,116l4,0 0,4 -4,0 0,-4z M32,116l4,0 0,4 -4,0 0,-4z M48,116l4,0 0,4 -4,0 0,-4z M60,116l4,0 0,4 -4,0 0,-4z M64,116l4,0 0,4 -4,0 0,-4z M68,116l4,0 0,4 -4,0 0,-4z M76,116l4,0 0,4 -4,0 0,-4z M84,116l4,0 0,4 -4,0 0,-4z M88,116l4,0 0,4 -4,0 0,-4z M96,116l4,0 0,4 -4,0 0,-4z M104,116l4,0 0,4 -4,0 0,-4z M120,116l4,0 0,4 -4,0 0,-4z M124,116l4,0 0,4 -4,0 0,-4z M128,116l4,0 0,4 -4,0 0,-4z M132,116l4,0 0,4 -4,0 0,-4z M140,116l4,0 0,4 -4,0 0,-4z M144,116l4,0 0,4 -4,0 0,-4z M164,116l4,0 0,4 -4,0 0,-4z M168,116l4,0 0,4 -4,0 0,-4z M176,116l4,0 0,4 -4,0 0,-4z M192,116l4,0 0,4 -4,0 0,-4z M208,116l4,0 0,4 -4,0 0,-4z M16,120l4,0 0,4 -4,0 0,-4z M20,120l4,0 0,4 -4,0 0,-4z M24,120l4,0 0,4 -4,0 0,-4z M32,120l4,0 0,4 -4,0 0,-4z M36,120l4,0 0,4 -4,0 0,-4z M40,120l4,0 0,4 -4,0 0,-4z M44,120l4,0 0,4 -4,0 0,-4z M48,120l4,0 0,4 -4,0 0,-4z M60,120l4,0 0,4 -4,0 0,-4z M64,120l4,0 0,4 -4,0 0,-4z M76,120l4,0 0,4 -4,0 0,-4z M80,120l4,0 0,4 -4,0 0,-4z M84,120l4,0 0,4 -4,0 0,-4z M100,120l4,0 0,4 -4,0 0,-4z M104,120l4,0 0,4 -4,0 0,-4z M108,120l4,0 0,4 -4,0 0,-4z M112,120l4,0 0,4 -4,0 0,-4z M116,120l4,0 0,4 -4,0 0,-4z M120,120l4,0 0,4 -4,0 0,-4z M128,120l4,0 0,4 -4,0 0,-4z M132,120l4,0 0,4 -4,0 0,-4z M136,120l4,0 0,4 -4,0 0,-4z M140,120l4,0 0,4 -4,0 0,-4z M144,120l4,0 0,4 -4,0 0,-4z M160,120l4,0 0,4 -4,0 0,-4z M164,120l4,0 0,4 -4,0 0,-4z M168,120l4,0 0,4 -4,0 0,-4z M172,120l4,0 0,4 -4,0 0,-4z M176,120l4,0 0,4 -4,0 0,-4z M180,120l4,0 0,4 -4,0 0,-4z M184,120l4,0 0,4 -4,0 0,-4z M188,120l4,0 0,4 -4,0 0,-4z M192,120l4,0 0,4 -4,0 0,-4z M196,120l4,0 0,4 -4,0 0,-4z M24,124l4,0 0,4 -4,0 0,-4z M28,124l4,0 0,4 -4,0 0,-4z M32,124l4,0 0,4 -4,0 0,-4z M44,124l4,0 0,4 -4,0 0,-4z M48,124l4,0 0,4 -4,0 0,-4z M52,124l4,0 0,4 -4,0 0,-4z M68,124l4,0 0,4 -4,0 0,-4z M72,124l4,0 0,4 -4,0 0,-4z M80,124l4,0 0,4 -4,0 0,-4z M84,124l4,0 0,4 -4,0 0,-4z M96,124l4,0 0,4 -4,0 0,-4z M100,124l4,0 0,4 -4,0 0,-4z M104,124l4,0 0,4 -4,0 0,-4z M112,124l4,0 0,4 -4,0 0,-4z M116,124l4,0 0,4 -4,0 0,-4z M124,124l4,0 0,4 -4,0 0,-4z M128,124l4,0 0,4 -4,0 0,-4z M136,124l4,0 0,4 -4,0 0,-4z M144,124l4,0 0,4 -4,0 0,-4z M148,124l4,0 0,4 -4,0 0,-4z M180,124l4,0 0,4 -4,0 0,-4z M196,124l4,0 0,4 -4,0 0,-4z M208,124l4,0 0,4 -4,0 0,-4z M16,128l4,0 0,4 -4,0 0,-4z M28,128l4,0 0,4 -4,0 0,-4z M40,128l4,0 0,4 -4,0 0,-4z M44,128l4,0 0,4 -4,0 0,-4z M52,128l4,0 0,4 -4,0 0,-4z M56,128l4,0 0,4 -4,0 0,-4z M64,128l4,0 0,4 -4,0 0,-4z M72,128l4,0 0,4 -4,0 0,-4z M80,128l4,0 0,4 -4,0 0,-4z M84,128l4,0 0,4 -4,0 0,-4z M96,128l4,0 0,4 -4,0 0,-4z M100,128l4,0 0,4 -4,0 0,-4z M104,128l4,0 0,4 -4,0 0,-4z M120,128l4,0 0,4 -4,0 0,-4z M124,128l4,0 0,4 -4,0 0,-4z M132,128l4,0 0,4 -4,0 0,-4z M144,128l4,0 0,4 -4,0 0,-4z M152,128l4,0 0,4 -4,0 0,-4z M180,128l4,0 0,4 -4,0 0,-4z M188,128l4,0 0,4 -4,0 0,-4z M196,128l4,0 0,4 -4,0 0,-4z M200,128l4,0 0,4 -4,0 0,-4z M204,128l4,0 0,4 -4,0 0,-4z M16,132l4,0 0,4 -4,0 0,-4z M28,132l4,0 0,4 -4,0 0,-4z M48,132l4,0 0,4 -4,0 0,-4z M56,132l4,0 0,4 -4,0 0,-4z M60,132l4,0 0,4 -4,0 0,-4z M64,132l4,0 0,4 -4,0 0,-4z M68,132l4,0 0,4 -4,0 0,-4z M80,132l4,0 0,4 -4,0 0,-4z M84,132l4,0 0,4 -4,0 0,-4z M88,132l4,0 0,4 -4,0 0,-4z M96,132l4,0 0,4 -4,0 0,-4z M116,132l4,0 0,4 -4,0 0,-4z M128,132l4,0 0,4 -4,0 0,-4z M132,132l4,0 0,4 -4,0 0,-4z M140,132l4,0 0,4 -4,0 0,-4z M144,132l4,0 0,4 -4,0 0,-4z M148,132l4,0 0,4 -4,0 0,-4z M152,132l4,0 0,4 -4,0 0,-4z M176,132l4,0 0,4 -4,0 0,-4z M188,132l4,0 0,4 -4,0 0,-4z M196,132l4,0 0,4 -4,0 0,-4z M200,132l4,0 0,4 -4,0 0,-4z M204,132l4,0 0,4 -4,0 0,-4z M208,132l4,0 0,4 -4,0 0,-4z M16,136l4,0 0,4 -4,0 0,-4z M24,136l4,0 0,4 -4,0 0,-4z M32,136l4,0 0,4 -4,0 0,-4z M40,136l4,0 0,4 -4,0 0,-4z M44,136l4,0 0,4 -4,0 0,-4z M48,136l4,0 0,4 -4,0 0,-4z M52,136l4,0 0,4 -4,0 0,-4z M56,136l4,0 0,4 -4,0 0,-4z M60,136l4,0 0,4 -4,0 0,-4z M64,136l4,0 0,4 -4,0 0,-4z M68,136l4,0 0,4 -4,0 0,-4z M72,136l4,0 0,4 -4,0 0,-4z M76,136l4,0 0,4 -4,0 0,-4z M88,136l4,0 0,4 -4,0 0,-4z M96,136l4,0 0,4 -4,0 0,-4z M100,136l4,0 0,4 -4,0 0,-4z M104,136l4,0 0,4 -4,0 0,-4z M108,136l4,0 0,4 -4,0 0,-4z M112,136l4,0 0,4 -4,0 0,-4z M124,136l4,0 0,4 -4,0 0,-4z M132,136l4,0 0,4 -4,0 0,-4z M136,136l4,0 0,4 -4,0 0,-4z M140,136l4,0 0,4 -4,0 0,-4z M156,136l4,0 0,4 -4,0 0,-4z M160,136l4,0 0,4 -4,0 0,-4z M172,136l4,0 0,4 -4,0 0,-4z M176,136l4,0 0,4 -4,0 0,-4z M184,136l4,0 0,4 -4,0 0,-4z M196,136l4,0 0,4 -4,0 0,-4z M200,136l4,0 0,4 -4,0 0,-4z M208,136l4,0 0,4 -4,0 0,-4z M16,140l4,0 0,4 -4,0 0,-4z M24,140l4,0 0,4 -4,0 0,-4z M28,140l4,0 0,4 -4,0 0,-4z M56,140l4,0 0,4 -4,0 0,-4z M60,140l4,0 0,4 -4,0 0,-4z M72,140l4,0 0,4 -4,0 0,-4z M84,140l4,0 0,4 -4,0 0,-4z M92,140l4,0 0,4 -4,0 0,-4z M100,140l4,0 0,4 -4,0 0,-4z M108,140l4,0 0,4 -4,0 0,-4z M116,140l4,0 0,4 -4,0 0,-4z M136,140l4,0 0,4 -4,0 0,-4z M144,140l4,0 0,4 -4,0 0,-4z M160,140l4,0 0,4 -4,0 0,-4z M172,140l4,0 0,4 -4,0 0,-4z M184,140l4,0 0,4 -4,0 0,-4z M192,140l4,0 0,4 -4,0 0,-4z M208,140l4,0 0,4 -4,0 0,-4z M16,144l4,0 0,4 -4,0 0,-4z M28,144l4,0 0,4 -4,0 0,-4z M32,144l4,0 0,4 -4,0 0,-4z M36,144l4,0 0,4 -4,0 0,-4z M40,144l4,0 0,4 -4,0 0,-4z M44,144l4,0 0,4 -4,0 0,-4z M48,144l4,0 0,4 -4,0 0,-4z M52,144l4,0 0,4 -4,0 0,-4z M56,144l4,0 0,4 -4,0 0,-4z M64,144l4,0 0,4 -4,0 0,-4z M72,144l4,0 0,4 -4,0 0,-4z M84,144l4,0 0,4 -4,0 0,-4z M88,144l4,0 0,4 -4,0 0,-4z M92,144l4,0 0,4 -4,0 0,-4z M100,144l4,0 0,4 -4,0 0,-4z M108,144l4,0 0,4 -4,0 0,-4z M112,144l4,0 0,4 -4,0 0,-4z M124,144l4,0 0,4 -4,0 0,-4z M136,144l4,0 0,4 -4,0 0,-4z M164,144l4,0 0,4 -4,0 0,-4z M168,144l4,0 0,4 -4,0 0,-4z M192,144l4,0 0,4 -4,0 0,-4z M196,144l4,0 0,4 -4,0 0,-4z M204,144l4,0 0,4 -4,0 0,-4z M16,148l4,0 0,4 -4,0 0,-4z M20,148l4,0 0,4 -4,0 0,-4z M52,148l4,0 0,4 -4,0 0,-4z M56,148l4,0 0,4 -4,0 0,-4z M68,148l4,0 0,4 -4,0 0,-4z M76,148l4,0 0,4 -4,0 0,-4z M88,148l4,0 0,4 -4,0 0,-4z M92,148l4,0 0,4 -4,0 0,-4z M112,148l4,0 0,4 -4,0 0,-4z M120,148l4,0 0,4 -4,0 0,-4z M124,148l4,0 0,4 -4,0 0,-4z M128,148l4,0 0,4 -4,0 0,-4z M132,148l4,0 0,4 -4,0 0,-4z M148,148l4,0 0,4 -4,0 0,-4z M172,148l4,0 0,4 -4,0 0,-4z M176,148l4,0 0,4 -4,0 0,-4z M196,148l4,0 0,4 -4,0 0,-4z M208,148l4,0 0,4 -4,0 0,-4z M20,152l4,0 0,4 -4,0 0,-4z M24,152l4,0 0,4 -4,0 0,-4z M40,152l4,0 0,4 -4,0 0,-4z M44,152l4,0 0,4 -4,0 0,-4z M48,152l4,0 0,4 -4,0 0,-4z M64,152l4,0 0,4 -4,0 0,-4z M68,152l4,0 0,4 -4,0 0,-4z M72,152l4,0 0,4 -4,0 0,-4z M76,152l4,0 0,4 -4,0 0,-4z M80,152l4,0 0,4 -4,0 0,-4z M84,152l4,0 0,4 -4,0 0,-4z M88,152l4,0 0,4 -4,0 0,-4z M92,152l4,0 0,4 -4,0 0,-4z M104,152l4,0 0,4 -4,0 0,-4z M108,152l4,0 0,4 -4,0 0,-4z M112,152l4,0 0,4 -4,0 0,-4z M120,152l4,0 0,4 -4,0 0,-4z M124,152l4,0 0,4 -4,0 0,-4z M128,152l4,0 0,4 -4,0 0,-4z M132,152l4,0 0,4 -4,0 0,-4z M140,152l4,0 0,4 -4,0 0,-4z M144,152l4,0 0,4 -4,0 0,-4z M148,152l4,0 0,4 -4,0 0,-4z M152,152l4,0 0,4 -4,0 0,-4z M176,152l4,0 0,4 -4,0 0,-4z M180,152l4,0 0,4 -4,0 0,-4z M188,152l4,0 0,4 -4,0 0,-4z M16,156l4,0 0,4 -4,0 0,-4z M20,156l4,0 0,4 -4,0 0,-4z M24,156l4,0 0,4 -4,0 0,-4z M28,156l4,0 0,4 -4,0 0,-4z M32,156l4,0 0,4 -4,0 0,-4z M36,156l4,0 0,4 -4,0 0,-4z M48,156l4,0 0,4 -4,0 0,-4z M52,156l4,0 0,4 -4,0 0,-4z M60,156l4,0 0,4 -4,0 0,-4z M68,156l4,0 0,4 -4,0 0,-4z M72,156l4,0 0,4 -4,0 0,-4z M80,156l4,0 0,4 -4,0 0,-4z M96,156l4,0 0,4 -4,0 0,-4z M104,156l4,0 0,4 -4,0 0,-4z M108,156l4,0 0,4 -4,0 0,-4z M120,156l4,0 0,4 -4,0 0,-4z M128,156l4,0 0,4 -4,0 0,-4z M148,156l4,0 0,4 -4,0 0,-4z M152,156l4,0 0,4 -4,0 0,-4z M156,156l4,0 0,4 -4,0 0,-4z M160,156l4,0 0,4 -4,0 0,-4z M164,156l4,0 0,4 -4,0 0,-4z M172,156l4,0 0,4 -4,0 0,-4z M176,156l4,0 0,4 -4,0 0,-4z M180,156l4,0 0,4 -4,0 0,-4z M184,156l4,0 0,4 -4,0 0,-4z M188,156l4,0 0,4 -4,0 0,-4z M200,156l4,0 0,4 -4,0 0,-4z M204,156l4,0 0,4 -4,0 0,-4z M16,160l4,0 0,4 -4,0 0,-4z M20,160l4,0 0,4 -4,0 0,-4z M32,160l4,0 0,4 -4,0 0,-4z M36,160l4,0 0,4 -4,0 0,-4z M40,160l4,0 0,4 -4,0 0,-4z M44,160l4,0 0,4 -4,0 0,-4z M48,160l4,0 0,4 -4,0 0,-4z M52,160l4,0 0,4 -4,0 0,-4z M64,160l4,0 0,4 -4,0 0,-4z M76,160l4,0 0,4 -4,0 0,-4z M84,160l4,0 0,4 -4,0 0,-4z M88,160l4,0 0,4 -4,0 0,-4z M92,160l4,0 0,4 -4,0 0,-4z M96,160l4,0 0,4 -4,0 0,-4z M108,160l4,0 0,4 -4,0 0,-4z M120,160l4,0 0,4 -4,0 0,-4z M140,160l4,0 0,4 -4,0 0,-4z M152,160l4,0 0,4 -4,0 0,-4z M160,160l4,0 0,4 -4,0 0,-4z M172,160l4,0 0,4 -4,0 0,-4z M176,160l4,0 0,4 -4,0 0,-4z M184,160l4,0 0,4 -4,0 0,-4z M188,160l4,0 0,4 -4,0 0,-4z M192,160l4,0 0,4 -4,0 0,-4z M200,160l4,0 0,4 -4,0 0,-4z M208,160l4,0 0,4 -4,0 0,-4z M16,164l4,0 0,4 -4,0 0,-4z M20,164l4,0 0,4 -4,0 0,-4z M28,164l4,0 0,4 -4,0 0,-4z M32,164l4,0 0,4 -4,0 0,-4z M36,164l4,0 0,4 -4,0 0,-4z M52,164l4,0 0,4 -4,0 0,-4z M60,164l4,0 0,4 -4,0 0,-4z M64,164l4,0 0,4 -4,0 0,-4z M76,164l4,0 0,4 -4,0 0,-4z M84,164l4,0 0,4 -4,0 0,-4z M88,164l4,0 0,4 -4,0 0,-4z M96,164l4,0 0,4 -4,0 0,-4z M108,164l4,0 0,4 -4,0 0,-4z M132,164l4,0 0,4 -4,0 0,-4z M140,164l4,0 0,4 -4,0 0,-4z M144,164l4,0 0,4 -4,0 0,-4z M148,164l4,0 0,4 -4,0 0,-4z M156,164l4,0 0,4 -4,0 0,-4z M160,164l4,0 0,4 -4,0 0,-4z M168,164l4,0 0,4 -4,0 0,-4z M176,164l4,0 0,4 -4,0 0,-4z M184,164l4,0 0,4 -4,0 0,-4z M192,164l4,0 0,4 -4,0 0,-4z M196,164l4,0 0,4 -4,0 0,-4z M200,164l4,0 0,4 -4,0 0,-4z M208,164l4,0 0,4 -4,0 0,-4z M20,168l4,0 0,4 -4,0 0,-4z M36,168l4,0 0,4 -4,0 0,-4z M40,168l4,0 0,4 -4,0 0,-4z M44,168l4,0 0,4 -4,0 0,-4z M52,168l4,0 0,4 -4,0 0,-4z M56,168l4,0 0,4 -4,0 0,-4z M60,168l4,0 0,4 -4,0 0,-4z M64,168l4,0 0,4 -4,0 0,-4z M76,168l4,0 0,4 -4,0 0,-4z M80,168l4,0 0,4 -4,0 0,-4z M84,168l4,0 0,4 -4,0 0,-4z M92,168l4,0 0,4 -4,0 0,-4z M100,168l4,0 0,4 -4,0 0,-4z M104,168l4,0 0,4 -4,0 0,-4z M116,168l4,0 0,4 -4,0 0,-4z M124,168l4,0 0,4 -4,0 0,-4z M136,168l4,0 0,4 -4,0 0,-4z M140,168l4,0 0,4 -4,0 0,-4z M144,168l4,0 0,4 -4,0 0,-4z M168,168l4,0 0,4 -4,0 0,-4z M172,168l4,0 0,4 -4,0 0,-4z M188,168l4,0 0,4 -4,0 0,-4z M196,168l4,0 0,4 -4,0 0,-4z M200,168l4,0 0,4 -4,0 0,-4z M20,172l4,0 0,4 -4,0 0,-4z M24,172l4,0 0,4 -4,0 0,-4z M28,172l4,0 0,4 -4,0 0,-4z M44,172l4,0 0,4 -4,0 0,-4z M48,172l4,0 0,4 -4,0 0,-4z M52,172l4,0 0,4 -4,0 0,-4z M64,172l4,0 0,4 -4,0 0,-4z M68,172l4,0 0,4 -4,0 0,-4z M76,172l4,0 0,4 -4,0 0,-4z M80,172l4,0 0,4 -4,0 0,-4z M100,172l4,0 0,4 -4,0 0,-4z M104,172l4,0 0,4 -4,0 0,-4z M112,172l4,0 0,4 -4,0 0,-4z M116,172l4,0 0,4 -4,0 0,-4z M120,172l4,0 0,4 -4,0 0,-4z M128,172l4,0 0,4 -4,0 0,-4z M136,172l4,0 0,4 -4,0 0,-4z M140,172l4,0 0,4 -4,0 0,-4z M144,172l4,0 0,4 -4,0 0,-4z M152,172l4,0 0,4 -4,0 0,-4z M156,172l4,0 0,4 -4,0 0,-4z M164,172l4,0 0,4 -4,0 0,-4z M188,172l4,0 0,4 -4,0 0,-4z M208,172l4,0 0,4 -4,0 0,-4z M16,176l4,0 0,4 -4,0 0,-4z M20,176l4,0 0,4 -4,0 0,-4z M24,176l4,0 0,4 -4,0 0,-4z M40,176l4,0 0,4 -4,0 0,-4z M52,176l4,0 0,4 -4,0 0,-4z M92,176l4,0 0,4 -4,0 0,-4z M100,176l4,0 0,4 -4,0 0,-4z M104,176l4,0 0,4 -4,0 0,-4z M108,176l4,0 0,4 -4,0 0,-4z M112,176l4,0 0,4 -4,0 0,-4z M116,176l4,0 0,4 -4,0 0,-4z M120,176l4,0 0,4 -4,0 0,-4z M132,176l4,0 0,4 -4,0 0,-4z M136,176l4,0 0,4 -4,0 0,-4z M144,176l4,0 0,4 -4,0 0,-4z M148,176l4,0 0,4 -4,0 0,-4z M156,176l4,0 0,4 -4,0 0,-4z M176,176l4,0 0,4 -4,0 0,-4z M180,176l4,0 0,4 -4,0 0,-4z M184,176l4,0 0,4 -4,0 0,-4z M188,176l4,0 0,4 -4,0 0,-4z M192,176l4,0 0,4 -4,0 0,-4z M200,176l4,0 0,4 -4,0 0,-4z M204,176l4,0 0,4 -4,0 0,-4z M48,180l4,0 0,4 -4,0 0,-4z M52,180l4,0 0,4 -4,0 0,-4z M60,180l4,0 0,4 -4,0 0,-4z M64,180l4,0 0,4 -4,0 0,-4z M72,180l4,0 0,4 -4,0 0,-4z M76,180l4,0 0,4 -4,0 0,-4z M92,180l4,0 0,4 -4,0 0,-4z M104,180l4,0 0,4 -4,0 0,-4z M120,180l4,0 0,4 -4,0 0,-4z M124,180l4,0 0,4 -4,0 0,-4z M140,180l4,0 0,4 -4,0 0,-4z M148,180l4,0 0,4 -4,0 0,-4z M152,180l4,0 0,4 -4,0 0,-4z M156,180l4,0 0,4 -4,0 0,-4z M164,180l4,0 0,4 -4,0 0,-4z M176,180l4,0 0,4 -4,0 0,-4z M192,180l4,0 0,4 -4,0 0,-4z M200,180l4,0 0,4 -4,0 0,-4z M204,180l4,0 0,4 -4,0 0,-4z M208,180l4,0 0,4 -4,0 0,-4z M16,184l4,0 0,4 -4,0 0,-4z M20,184l4,0 0,4 -4,0 0,-4z M24,184l4,0 0,4 -4,0 0,-4z M28,184l4,0 0,4 -4,0 0,-4z M32,184l4,0 0,4 -4,0 0,-4z M36,184l4,0 0,4 -4,0 0,-4z M40,184l4,0 0,4 -4,0 0,-4z M48,184l4,0 0,4 -4,0 0,-4z M52,184l4,0 0,4 -4,0 0,-4z M64,184l4,0 0,4 -4,0 0,-4z M72,184l4,0 0,4 -4,0 0,-4z M80,184l4,0 0,4 -4,0 0,-4z M84,184l4,0 0,4 -4,0 0,-4z M88,184l4,0 0,4 -4,0 0,-4z M100,184l4,0 0,4 -4,0 0,-4z M104,184l4,0 0,4 -4,0 0,-4z M112,184l4,0 0,4 -4,0 0,-4z M120,184l4,0 0,4 -4,0 0,-4z M124,184l4,0 0,4 -4,0 0,-4z M132,184l4,0 0,4 -4,0 0,-4z M140,184l4,0 0,4 -4,0 0,-4z M148,184l4,0 0,4 -4,0 0,-4z M152,184l4,0 0,4 -4,0 0,-4z M156,184l4,0 0,4 -4,0 0,-4z M168,184l4,0 0,4 -4,0 0,-4z M176,184l4,0 0,4 -4,0 0,-4z M184,184l4,0 0,4 -4,0 0,-4z M192,184l4,0 0,4 -4,0 0,-4z M196,184l4,0 0,4 -4,0 0,-4z M208,184l4,0 0,4 -4,0 0,-4z M16,188l4,0 0,4 -4,0 0,-4z M40,188l4,0 0,4 -4,0 0,-4z M48,188l4,0 0,4 -4,0 0,-4z M52,188l4,0 0,4 -4,0 0,-4z M60,188l4,0 0,4 -4,0 0,-4z M64,188l4,0 0,4 -4,0 0,-4z M80,188l4,0 0,4 -4,0 0,-4z M84,188l4,0 0,4 -4,0 0,-4z M104,188l4,0 0,4 -4,0 0,-4z M120,188l4,0 0,4 -4,0 0,-4z M124,188l4,0 0,4 -4,0 0,-4z M128,188l4,0 0,4 -4,0 0,-4z M132,188l4,0 0,4 -4,0 0,-4z M140,188l4,0 0,4 -4,0 0,-4z M148,188l4,0 0,4 -4,0 0,-4z M160,188l4,0 0,4 -4,0 0,-4z M168,188l4,0 0,4 -4,0 0,-4z M172,188l4,0 0,4 -4,0 0,-4z M176,188l4,0 0,4 -4,0 0,-4z M192,188l4,0 0,4 -4,0 0,-4z M204,188l4,0 0,4 -4,0 0,-4z M16,192l4,0 0,4 -4,0 0,-4z M24,192l4,0 0,4 -4,0 0,-4z M28,192l4,0 0,4 -4,0 0,-4z M32,192l4,0 0,4 -4,0 0,-4z M40,192l4,0 0,4 -4,0 0,-4z M52,192l4,0 0,4 -4,0 0,-4z M56,192l4,0 0,4 -4,0 0,-4z M60,192l4,0 0,4 -4,0 0,-4z M72,192l4,0 0,4 -4,0 0,-4z M76,192l4,0 0,4 -4,0 0,-4z M88,192l4,0 0,4 -4,0 0,-4z M104,192l4,0 0,4 -4,0 0,-4z M108,192l4,0 0,4 -4,0 0,-4z M112,192l4,0 0,4 -4,0 0,-4z M116,192l4,0 0,4 -4,0 0,-4z M120,192l4,0 0,4 -4,0 0,-4z M124,192l4,0 0,4 -4,0 0,-4z M128,192l4,0 0,4 -4,0 0,-4z M164,192l4,0 0,4 -4,0 0,-4z M168,192l4,0 0,4 -4,0 0,-4z M176,192l4,0 0,4 -4,0 0,-4z M180,192l4,0 0,4 -4,0 0,-4z M184,192l4,0 0,4 -4,0 0,-4z M188,192l4,0 0,4 -4,0 0,-4z M192,192l4,0 0,4 -4,0 0,-4z M196,192l4,0 0,4 -4,0 0,-4z M16,196l4,0 0,4 -4,0 0,-4z M24,196l4,0 0,4 -4,0 0,-4z M28,196l4,0 0,4 -4,0 0,-4z M32,196l4,0 0,4 -4,0 0,-4z M40,196l4,0 0,4 -4,0 0,-4z M48,196l4,0 0,4 -4,0 0,-4z M56,196l4,0 0,4 -4,0 0,-4z M72,196l4,0 0,4 -4,0 0,-4z M76,196l4,0 0,4 -4,0 0,-4z M80,196l4,0 0,4 -4,0 0,-4z M88,196l4,0 0,4 -4,0 0,-4z M104,196l4,0 0,4 -4,0 0,-4z M108,196l4,0 0,4 -4,0 0,-4z M116,196l4,0 0,4 -4,0 0,-4z M120,196l4,0 0,4 -4,0 0,-4z M124,196l4,0 0,4 -4,0 0,-4z M128,196l4,0 0,4 -4,0 0,-4z M132,196l4,0 0,4 -4,0 0,-4z M136,196l4,0 0,4 -4,0 0,-4z M140,196l4,0 0,4 -4,0 0,-4z M144,196l4,0 0,4 -4,0 0,-4z M156,196l4,0 0,4 -4,0 0,-4z M160,196l4,0 0,4 -4,0 0,-4z M164,196l4,0 0,4 -4,0 0,-4z M176,196l4,0 0,4 -4,0 0,-4z M180,196l4,0 0,4 -4,0 0,-4z M184,196l4,0 0,4 -4,0 0,-4z M188,196l4,0 0,4 -4,0 0,-4z M192,196l4,0 0,4 -4,0 0,-4z M196,196l4,0 0,4 -4,0 0,-4z M208,196l4,0 0,4 -4,0 0,-4z M16,200l4,0 0,4 -4,0 0,-4z M24,200l4,0 0,4 -4,0 0,-4z M28,200l4,0 0,4 -4,0 0,-4z M32,200l4,0 0,4 -4,0 0,-4z M40,200l4,0 0,4 -4,0 0,-4z M48,200l4,0 0,4 -4,0 0,-4z M60,200l4,0 0,4 -4,0 0,-4z M64,200l4,0 0,4 -4,0 0,-4z M76,200l4,0 0,4 -4,0 0,-4z M80,200l4,0 0,4 -4,0 0,-4z M84,200l4,0 0,4 -4,0 0,-4z M88,200l4,0 0,4 -4,0 0,-4z M92,200l4,0 0,4 -4,0 0,-4z M96,200l4,0 0,4 -4,0 0,-4z M104,200l4,0 0,4 -4,0 0,-4z M108,200l4,0 0,4 -4,0 0,-4z M124,200l4,0 0,4 -4,0 0,-4z M128,200l4,0 0,4 -4,0 0,-4z M132,200l4,0 0,4 -4,0 0,-4z M140,200l4,0 0,4 -4,0 0,-4z M156,200l4,0 0,4 -4,0 0,-4z M164,200l4,0 0,4 -4,0 0,-4z M168,200l4,0 0,4 -4,0 0,-4z M180,200l4,0 0,4 -4,0 0,-4z M184,200l4,0 0,4 -4,0 0,-4z M192,200l4,0 0,4 -4,0 0,-4z M200,200l4,0 0,4 -4,0 0,-4z M204,200l4,0 0,4 -4,0 0,-4z M208,200l4,0 0,4 -4,0 0,-4z M16,204l4,0 0,4 -4,0 0,-4z M40,204l4,0 0,4 -4,0 0,-4z M52,204l4,0 0,4 -4,0 0,-4z M56,204l4,0 0,4 -4,0 0,-4z M60,204l4,0 0,4 -4,0 0,-4z M72,204l4,0 0,4 -4,0 0,-4z M80,204l4,0 0,4 -4,0 0,-4z M84,204l4,0 0,4 -4,0 0,-4z M88,204l4,0 0,4 -4,0 0,-4z M92,204l4,0 0,4 -4,0 0,-4z M108,204l4,0 0,4 -4,0 0,-4z M120,204l4,0 0,4 -4,0 0,-4z M124,204l4,0 0,4 -4,0 0,-4z M128,204l4,0 0,4 -4,0 0,-4z M144,204l4,0 0,4 -4,0 0,-4z M152,204l4,0 0,4 -4,0 0,-4z M156,204l4,0 0,4 -4,0 0,-4z M160,204l4,0 0,4 -4,0 0,-4z M164,204l4,0 0,4 -4,0 0,-4z M168,204l4,0 0,4 -4,0 0,-4z M172,204l4,0 0,4 -4,0 0,-4z M176,204l4,0 0,4 -4,0 0,-4z M188,204l4,0 0,4 -4,0 0,-4z M192,204l4,0 0,4 -4,0 0,-4z M200,204l4,0 0,4 -4,0 0,-4z M16,208l4,0 0,4 -4,0 0,-4z M20,208l4,0 0,4 -4,0 0,-4z M24,208l4,0 0,4 -4,0 0,-4z M28,208l4,0 0,4 -4,0 0,-4z M32,208l4,0 0,4 -4,0 0,-4z M36,208l4,0 0,4 -4,0 0,-4z M40,208l4,0 0,4 -4,0 0,-4z M48,208l4,0 0,4 -4,0 0,-4z M52,208l4,0 0,4 -4,0 0,-4z M56,208l4,0 0,4 -4,0 0,-4z M60,208l4,0 0,4 -4,0 0,-4z M64,208l4,0 0,4 -4,0 0,-4z M72,208l4,0 0,4 -4,0 0,-4z M112,208l4,0 0,4 -4,0 0,-4z M124,208l4,0 0,4 -4,0 0,-4z M132,208l4,0 0,4 -4,0 0,-4z M136,208l4,0 0,4 -4,0 0,-4z M148,208l4,0 0,4 -4,0 0,-4z M160,208l4,0 0,4 -4,0 0,-4z M168,208l4,0 0,4 -4,0 0,-4z M180,208l4,0 0,4 -4,0 0,-4z M200,208l4,0 0,4 -4,0 0,-4z M204,208l4,0 0,4 -4,0 0,-4z M208,208l4,0 0,4 -4,0 0,-4z " stroke="transparent" fill="black"/></svg>